<svg id="Layer_1" data-name="Layer 1" xmlns="http://www.w3.org/2000/svg" viewBox="0 0 91.53 39.56"><defs><style>.cls-1{fill:#00001a;}</style></defs><path class="cls-1" d="M.08.05H31.15l.25,10.34H30.21q-1.2-9-10.21-9H14.59V18.29h4.27q3.48,0,4.88-1.8,1.08-1.42,1.48-5.19h1.2V26.89h-1.2c-.1-2.43-.57-4.19-1.43-5.27-1-1.27-2.64-1.91-5-1.91H14.59V37.58h5.53c3.63,0,6.38-1.18,8.26-3.56a12,12,0,0,0,2.94-6.93h1.22V39H.08V37.58H3.7V1.41H.08Z" transform="translate(-0.08 -0.05)"/><path class="cls-1" d="M59.28,12l15,25.61h2.31V39H58.48V37.58H61.6L51.27,19.17l-.77.62V37.58h3.62V39H36V37.58h3.62V1.41H36V.05H54.12V1.41H50.5V18.26L62.58,6.91C65,4.63,66.23,3.16,66.23,2.5s-.79-1.09-2.36-1.09h-.72V.05H75V1.41h-.62c-2.39,0-5,1.35-8,4Z" transform="translate(-0.08 -0.05)"/><path class="cls-1" d="M86.45,29.12a4.92,4.92,0,0,1,3.65,1.55,5.11,5.11,0,0,1,1.51,3.69,5.25,5.25,0,1,1-10.49,0,5,5,0,0,1,1.56-3.72A5.25,5.25,0,0,1,86.45,29.12Z" transform="translate(-0.08 -0.05)"/></svg>